<svg id="Layer_1" xmlns="http://www.w3.org/2000/svg" viewBox="0 0 30 60.9"><style>.st0{fill:#0468b1}.st1{fill:#fff}</style><path class="st0" d="M0 30.9h14.5v14.5H0z"/><path class="st1" d="M10.6 36.1c0 .9-.3 1.6-.8 2.1-.7.7-1.7 1.1-3 1.1-.4 0-.7 0-1-.1V43H4.6v-9.6c.6-.1 1.4-.2 2.4-.2 1.2 0 2.1.3 2.7.8.6.5.9 1.2.9 2.1m-1.3.1c0-1.3-.9-1.9-2.3-1.9-.5 0-1 .1-1.2.1v3.8c.3.1.6.1 1 .1 1.6-.1 2.5-.8 2.5-2.1"/><path class="st0" d="M15.4 30.9h14.5v14.5H15.4z"/><path class="st1" d="M20.3 43v-4.2c0-1.6 0-2.8-.1-4 .5 1 1.1 2.2 1.8 3.2l3.1 4.9h1.3v-9.7h-1.2v4.1c0 1.5 0 2.7.1 4-.4-1-1-2-1.7-3.2l-3.1-4.9h-1.4V43h1.2z"/><path class="st0" d="M0 46.3h14.5v14.5H0z"/><path class="st1" d="M3.7 48.7v5.7c0 3 1.5 4.1 3.5 4.1 2.1 0 3.7-1.2 3.7-4.2v-5.7H9.6v5.8c0 2.1-.9 3.1-2.4 3.1-1.3 0-2.3-.9-2.3-3.1v-5.8H3.7z"/><path class="st0" d="M15.4 46.3h14.5v14.5H15.4z"/><path class="st1" d="M27.1 53.2c0 1.6-.5 2.9-1.4 3.8-.9.9-2.4 1.4-4.3 1.4-.9 0-1.6 0-2.3-.1v-9.6c.8-.1 1.7-.2 2.7-.2 1.8 0 3.1.4 3.9 1.2.8.8 1.4 2 1.4 3.5m-1.4.1c0-2.3-1.3-3.7-3.9-3.7-.6 0-1.1.1-1.5.1v7.7c.3.1.8.1 1.3.1 2.7-.1 4.1-1.6 4.1-4.2"/><path class="st0" d="M0 0h30v30H0z"/><path class="st1" d="M22.6 21.4c-.7.2-1.4.2-2.1.5 1.1-1 1.1-2.5 1.8-3.6.2-.3.4-.7.7-1-.5.9-.3 2.1-.8 3-.2.4-.5.7-.8 1 .1 0 .2-.1.3-.2.9-.9 2-1.1 2.9-1.8.4-.3.7-.7.9-1.1-.1 1.4-1.5 2.7-2.9 3.2m3.1-5.8c-.4.6-.9 1.2-1.3 1.8 0-.5.1-1.1-.1-1.5-.3-1-.6-2-.7-3.1v-.4c.2 1.1 1.3 1.9 1.3 3.1 0 .3-.1.6-.1.8v-.1c.2-.6.2-1.2.5-1.8.4-.8.8-1.6.6-2.6.6 1.2.4 2.7-.2 3.8"/><path class="st1" d="M25.1 9.4c.7 1 .9 2.5.3 3.6-.2.5-.3 1-.4 1.5 0-.1 0-.2-.1-.3-.3-1.1-1.3-1.8-1.7-2.9-.1-.3-.2-.7-.3-1 .4.8 1.6 1.3 1.9 2.2.1.2.1.5.2.8-.1-.9-.1-1.9 0-2.9 0-.5-.1-1-.3-1.4.2 0 .2.2.4.4"/><path class="st1" d="M24.6 9.2c.2.8-.1 1.7.1 2.5-.5-.9-1.4-1.3-2.1-2-.4-.4-.6-.9-.7-1.5.4.9 1.4 1.1 2 1.9.2.2.3.4.4.6-.3-.7-.4-1.6-.7-2.3-.1-.4-.3-.7-.6-.9.7.1 1.4 1 1.6 1.7"/><path class="st1" d="M22.5 7.3c.6.5.9 1.2 1 1.9l.1.2c-.8-.6-1.6-1.4-2.2-2.3l-.7-.7c.7.3 1.3.4 1.8.9M9 6.5c-.6.5-1 1.2-1.4 1.8-.4.5-.9.8-1.3 1.2.2-.5.2-1 .6-1.5.5-.8 1.3-1.1 2.1-1.5"/><path class="st1" d="M5.8 8.3c.3-.3.7-.6 1.1-.7-.8.5-.7 1.5-1 2.3l-.3.9c.1-.3.4-.7.7-1 .5-.4 1.4-.7 1.7-1.5 0 1.1-.9 1.9-1.8 2.5-.4.3-.7.7-.9 1.1v-.8c-.1-1-.1-2.1.5-2.8"/><path class="st1" d="M4.2 11.5c0-.9.4-1.7.9-2.4-.6.9-.1 2.1-.1 3.1v1.1c0-.1 0-.2.1-.4.1-.9.9-1.5 1.6-2.1.1-.2.3-.3.3-.5-.1.4-.2.9-.4 1.3-.5 1-1.5 1.8-1.6 3-.1-1.1-.8-1.9-.8-3.1"/><path class="st1" d="M3.8 12.9c0-.3.1-.6.2-.9-.2 1.2.6 2.1.9 3.2.1.4.1.9.3 1.2-.4-1.2.2-2.2.8-3.1.1-.2.2-.5.3-.8.1.5-.1 1.1-.1 1.7-.1.7-.4 1.3-.5 2-.1.4-.1.9 0 1.3h-.1c-.5-.8-1.4-1.5-1.6-2.4-.2-.7-.4-1.5-.2-2.2"/><path class="st1" d="M3.7 15.3c.1 1.3 1.5 2 2.2 3.1.2.2.3.5.5.7 0-.1-.2-.3-.2-.4-.2-.5-.3-1-.3-1.6.1-.7.3-1.3.2-2 .6 1.3.4 2.8.7 4.2.1.3.3.6.4.8-1.2-.8-2.8-1.6-3.3-3.1-.2-.5-.2-1.1-.2-1.7"/><path class="st1" d="M4.4 18.3c.7 1.5 2.3 1.6 3.4 2.5.2.2.4.3.7.4-.3-.2-.6-.5-.7-.8-.7-.9-.4-2.2-.9-3.2.4.5.8 1.1 1.1 1.7.4 1 .6 2.1 1.5 2.8-1-.3-2.2-.2-3.1-.9-.9-.3-1.8-1.3-2-2.5"/><path class="st1" d="M6.1 21.2c1.1 1.2 2.8.8 4.2 1.1.2 0 .4.1.6.1-.2-.1-.4-.1-.6-.2-1.1-.4-1.3-1.6-1.9-2.4.8.5 1.4 1.2 2.1 1.9.5.4 1.1.7 1.8.8-.2.1-.4 0-.5.1-1.2.3-2.5.8-3.7.3-.7-.3-1.5-1-2-1.7"/><path class="st1" d="M20.6 24c-1.2.4-2.5 0-3.4-.7-.4-.2-.7-.6-1.2-.6h-.5c.9.4 1.8 1 2.5 1.8-.1.1-.3.3-.5.4-.7-.8-1.6-1.6-2.5-2-.2 0-.4.1-.5.2-.8.5-1.5 1.1-2.1 1.8l-.4-.4c.8-.8 1.6-1.4 2.5-1.8-.9-.3-1.5.5-2.2.9-.8.6-2 .8-2.9.4-.5-.2-1-.5-1.4-1 .8.5 1.9.6 2.8.2 1.2-.5 2.4-1.2 3.8-.8.2 0 .4.2.6 0 1-.3 2.2-.1 3.1.4l.9.4c.9.3 2 .2 2.7-.3-.2.5-.8.9-1.3 1.1"/><path class="st1" d="M21.9 22.7c-1.3.5-2.7-.1-4-.3h-.2c.6-.1 1.2-.3 1.7-.8.7-.7 1.4-1.4 2.2-2-.6.8-.7 1.9-1.6 2.3-.2.2-.6.2-.8.3.4 0 .7-.1 1-.2 1.3-.2 2.8 0 3.8-1.1-.5.9-1.3 1.6-2.1 1.8m2.4-3.8c-.5.3-1.1.7-1.6 1.1.8-1.3.4-3.1.9-4.5l.2-.5c-.1.9.3 1.6.3 2.5 0 .5-.2 1-.5 1.5.4-.5.7-1 1.1-1.5.7-.7 1.4-1.4 1.5-2.3.3 1.5-.6 2.9-1.9 3.7m-2.1-8.6C20.9 7.5 18 5.8 15 5.8c-1.3 0-2.5.3-3.6.9-2 .9-3.6 3-4.1 5-.9 3.4.3 6.9 3.2 8.9 2.1 1.5 5.5 1.8 7.8.6 2.1-.9 3.9-3 4.4-5.2.6-1.9.3-4.1-.5-5.7m.4 2.9c0 .1 0 .3.1.4h-1.3c0-.9-.3-1.7-.6-2.5 0-.3-.3-.6-.5-.9-.2-.2-.3-.5-.6-.6-.1-.1-.1-.2-.2-.2h.1c.3-.3.6-.6.8-.9 1.3 1.3 2 2.9 2.2 4.7m-3.3 4.3c-.1-.1-.1-.3-.3-.3-.1 0-.1 0-.1.1v.1l-.4-.3c.2-.1.3-.3.4-.5.3-.5.5-1 .7-1.5h.2c.1 0 .1-.1 0-.2l-.1-.1c0-.2.1-.5.1-.7H21c-.1 1.4-.6 2.7-1.6 3.8 0-.2-.1-.3-.1-.4m-.9 1.1c-.2-.2.1-.4.2-.5 0-.2-.2-.3-.4-.3-.1 0-.1-.1-.1-.2l.2-.2v.1l.5.5c0 .1 0 .2.1.3h.2c-.2.2-.5.4-.7.6l-.1.1c0-.2.2-.3.1-.4m-2.3-6.2c-.1 0-.1.1-.2 0s-.2-.2-.3-.2c-.1 0-.1.1-.2.1.1-.2.4-.2.5-.4 0-.1.1-.2 0-.3 0 0-.1-.1-.2 0s-.3.2-.3.3l-.3-.1c0-.3 0-.6-.1-.8.2.1.3.1.5.1.4.1.8.3 1.1.5-.1 0-.2.1-.2.2s.1.1.1.1h.1c0 .2-.4.2-.5.5m.4 3.3c0 .1-.2.1-.3.2-.1 0 0-.1 0-.1.1 0 .1-.1.3-.1m2.3-3.8c.1 0 .2.2.3.2.1.2.2.4.2.6-.1.1-.1.4-.3.3-.1-.1.1-.2.1-.3 0 0 .1 0 .1-.1s-.2-.1-.2-.2-.1-.1-.2-.1c-.2-.1-.3.3-.3 0 0 0 .1-.1 0-.2s-.1-.3-.3-.3c-.2 0-.4-.1-.6 0-.1 0-.3-.1-.4 0 0 .1-.1.2-.1.3L17 12c.4-.4.8-.8 1.1-1.2.2.2.4.5.5.7.2.2-.1.3.2.4m.7 2.1c-.1.2-.1.5-.1.7v.1c-.1-.1-.1-.3-.3-.4-.1-.1 0-.3-.2-.3l-.2-.1c.2.1.5 0 .8 0m-1.7-3.4l-.7.7v-.1c-.5-.4-1.1-.6-1.8-.7h-.1V9.3c.4.1.9.1 1.3.3.5.2 1 .5 1.4.8h.1l-.2.2zm-1.1 6c.4 0 .7.1 1 .2.1 0 .2 0 .2-.1s.1-.2.1-.3c.1-.1 0-.3.1-.4 0-.1 0-.3-.1-.4-.1-.1-.2 0-.3 0-.1.1-.1.3-.2.2 0 .1-.1.1-.2 0 .1-.1.3 0 .3-.2.1-.1.2 0 .3-.1.1-.1.1-.2.2-.3v-.1c0 .1 0 .1.1.2.1 0 .1 0 .2-.1 0 0 0-.1.1 0s.2 0 .4 0c.1 0 .2-.1.3-.1-.1.4-.3.9-.6 1.2-.1.1-.2.3-.3.4 0-.1 0-.2-.1-.3-.1.1-.2.2-.2.4-.1.2-.3 0-.5.1s-.3-.1-.4-.2c-.1 0-.3 0-.4-.1-.1 0 0 0 0 0m-.8-10.4c1.6.2 3 .9 4.2 2l-.1.1c-.2.2-.5.4-.6.7 0-.1-.1-.1-.2-.2 0-.2-.2-.4-.4-.5-.2 0-.2-.3-.4-.2-.2-.1-.4 0-.5 0-.8-.4-1.6-.7-2.5-.8h-.1v-.2l-.1-.1V6c.2.2.5.2.7.2m-.3 1.7c.7.1 1.3.3 1.9.6.1.1.3.2.3.4 0 .1.4.1.2.4 0 .1.1.1.1.2s0 .2.1.2.2-.2.3-.1c.2.1.2.4.2.6 0 .1.1.2.3.3.2-.1.1.2.3.3.2 0 .3.3.5.2.2.1.3.3.4.5v.1h.2c.3.6.5 1.3.5 2.1v.1h-1.2c0-.2 0-.5-.1-.7.1-.1.1-.3.1-.4 0-.1-.1 0-.1 0-.1.1-.1.3-.2.4-.1.2-.1.4-.1.6h-.4c.1-.1-.1-.2 0-.3h.2c.1-.1.2-.3.2-.4.1-.1.2-.2.1-.4s.2-.4 0-.7c0-.1 0-.1-.1-.1s-.1 0-.1-.1.1-.1.1-.2-.1 0-.2 0c0-.1.2-.2 0-.3-.1 0-.2.1-.3.1 0 0-.1-.1 0-.2l-.2-.3h-.1c0-.2-.3-.4-.3-.6-.1-.1 0-.2-.1-.3-.1 0-.1-.1-.2-.1-.1-.1-.2-.3-.4-.4h-.1c0 .1.2.2.1.3 0 .1.1.2.2.3-.6-.5-1.4-.7-2.2-.9-.2 0-.3-.1-.5 0V7.9c.3 0 .5-.1.6 0m-.6 4.6h-.2v.1c.1.1.2.3.4.2.1 0 .2 0 .2.1.1 0 .1.2.3.2 0 .1 0 .2.1.3 0 .1-.1.1-.1.2v.1c.1 0 .1.2.2.3 0 .1 0 .2.1.3 0 .1-.1.3-.1.4-.2.1-.4-.1-.5.2-.1.1 0 .3-.2.3-.3 0-.6 0-.9-.2.2-.1.4 0 .5-.2 0 0 .1-.1 0-.2.1-.1.1-.2.1-.3-.1-.1 0-.1 0-.2-.2-.1-.4-.1-.6-.1-.1.1 0 .2-.1.3-.2 0-.2.2-.3.3-.1 0-.1-.1-.1-.2v.1c.2 0 .1-.1.2-.2 0-.1.2-.2.1-.3v-.1c-.1 0-.1 0-.2.1 0 .1 0 .1-.1.2 0 0 0-.1-.1-.1s-.2.1-.3 0c-.1 0-.3.1-.4.1 0-.1.1-.1.1-.1 0-.1.1-.2.1-.3h.1s.1.1.1 0v-.1c.1.1.1.4.3.3 0-.1 0-.3.1-.5-.1-.1.1-.2.1-.3.1 0 .1-.1.2-.2.2-.1.4-.1.5-.3 0-.1 0-.2-.1-.3.3 0 .4 0 .5.1m-.2 7.4l-.1-.1c-1.5-.1-2.8-.7-3.9-1.7.2 0 .2.2.4.2s.4-.2.6-.2c.1 0 .3 0 .3-.1s-.1-.2-.1-.3c.8.6 1.6.9 2.6 1h.1v1.1l.1.1zm-4.2-5.8c.1 0 .2 0 .3-.1-.2.1-.1.3-.2.5 0 .1.1.1.1.2-.1 0-.1.2-.2.2.1-.3 0-.5 0-.8m-1.2 1.4c-.1 0-.1.1-.1.2 0-.3-.1-.6-.2-.8l-.1-.8V14c.4.1.7 0 1.1 0h.1c0 .2 0 .4.1.6 0 0-.1-.2-.2-.2-.2 0-.2.3-.4.3-.2.1-.2.3-.2.5 0 .1-.2.2-.1.3m.8-1.9H9c.1-1.2.4-2.3 1.1-3.3l.4-.5v-.1c.3.3.5.6.8.8-.8.8-1.2 1.9-1.3 3 .2.1.1.1.2.1M14.7 9h-.6c-.9.2-1.7.6-2.4 1.2v-.1c-.3-.2-.5-.6-.8-.7.3-.2.5-.4.7-.5.9-.6 2-1 3.1-1V9m-1.8 6s.1.1 0 0c.1 0 0-.1.1-.2.1.1 0 .2.1.3v.2c-.1.1-.3.2-.3.4-.1-.2-.2-.3-.3-.5-.1-.2-.2-.4-.3-.7.1.1.4 0 .4.2h.2s.1.1 0 .1c0 .1 0 .2.1.2m1.2 3.1l.2.1c-.7-.2-1.4-.4-2-.9-.1-.1-.2-.2-.3-.2.3-.2.6-.5.8-.8.1.2.3.3.5.4.3.1.6.4 1 .3-.1 0-.2.1-.3.2 0 .1 0 .3-.2.3 0 .3.2.5.3.6m-2.5-1.4v-.2c-.2-.2-.2-.6-.2-.8-.2-.1 0-.3-.1-.5 0-.2-.4-.3-.2-.6 0-.1-.1-.1 0-.2s.2 0 .3-.1v-.2c.1 0 .2.1.2-.1.1-.2-.3-.4 0-.5.1 0 .3 0 .3.1 0 .2.1.3 0 .5.1 0 0 .1 0 .2-.1 0-.1.1-.2.1 0-.1-.1-.1-.2-.1-.1.1 0 .2 0 .3v.2h-.1c-.1 0 0 .1 0 .2.1 0 .1.1.2.1 0-.1.1-.2.1-.4l.1.1c.1.5.3.9.6 1.4l.2.2c-.4.3-.7.7-1 1 0 0 0-.1-.1-.1-.1-.5.1-.4.1-.6m.5-4.7l-.3.3c-.1.1-.2.1-.3.2 0 0 .1.1 0 .1-.1.1-.3 0-.3.1s-.2.2-.2.4c-.1.1-.1.2-.1.3.1.1 0 .2.1.2h-.5c.1-.2.1-.4.1-.6.1-.8.5-1.6 1.1-2.2.3.3.6.6.9.8-.2.1-.2.4-.5.4m2.5 4.3c-.1.1 0 .2 0 .3-.5-.1-1-.3-1.4-.7.2-.3.6-.5.7-.8 0 .1.2.2.3.2.2.1.5.2.7.1l-.1.1c.1.1-.1.1 0 .2 0 .1-.1 0-.1.1s0 .2.1.2v.1c-.1.1-.2.1-.2.2m-1.3-1.2c.1-.1.1-.2.2-.3l.1.1c-.1 0-.2.1-.3.2zm1.1-3.3v-.2c-.2.1-.1.3-.2.4 0 .1-.2.1-.2.1 0-.1-.1-.1-.2 0-.1 0-.1-.2-.2-.1 0 0 0 .1-.1.1h-.1c0-.1.1-.1.1-.1-.1-.1-.2-.1-.3-.2H13c.5-.5 1.1-.7 1.7-.8 0 .3 0 .6.1.9-.1-.2-.3 0-.4-.1m.3-1.3c-.2 0-.4 0-.6.1-.4.1-.8.4-1.2.6 0 0 0 .1-.1.1-.3-.2-.5-.6-.9-.8.8-.6 1.7-1.1 2.7-1.1h.1v1.1m-4.3-2.8c1.3-.9 2.7-1.5 4.3-1.5v1.2c-1.6.1-2.9.7-4.1 1.7v.1l-.9-.9c.2-.2.5-.4.7-.6m-3 5.2c.2-1.7.9-3.1 2-4.4v.1c.3.3.5.6.8.8-.1.2-.2.4-.4.6-.7 1-1.1 2.2-1.2 3.4v.2H7.4v-.7m1 4.7c-.6-1.1-.9-2.2-1-3.5h1.2v.3c0 .4.1.8.2 1.2l.1.1c-.1-.1-.1-.2-.2-.2s-.2 0-.3.1c0 .1-.1.1-.1.1s0-.1-.1-.1-.2 0-.2.1-.1.1-.1.1c0 .2-.1.4 0 .6 0 .1.1.3.2.3h.1c.1.1.2.3.3.2v-.1c.2 0 .2.2.4.2l.1.1c.2 0 .1.2.2.3.1.1.1.2.3.1v-.1.2l.3.3c.1.1.2.3.4.4h-.1l-.8.8c-.2-.5-.7-1-.9-1.5m5.6 3.8c-1.6-.2-3-.9-4.3-2l.8-.8c1.1 1.1 2.5 1.7 4.1 1.8h.1v1.2l.1.1c-.3-.3-.6-.3-.8-.3m1-4.6h-.2v-.1c.1 0 .2-.1.3-.1.1-.1.1-.2.2-.2 0-.1.1 0 .1-.1 0 0 .1-.1.1 0 .1.1.2.1.3.2 0 0 .1 0 0-.1.1 0 .2.2.3 0v-.1c.1 0 .1.1.3.1.1-.1.2-.2.3-.2 0 .2-.2.4-.4.5-.1 0-.3 0-.3.2-.1.1-.3-.1-.4 0-.1 0 0-.2-.1-.2-.2.1-.4-.1-.5.1m.3 2.1c.1.1.4-.1.5.1 0 .1-.1.2-.1.3.1.1.1.3.3.4 0 .1.1.1.2.1-.3.1-.7 0-1 .1 0-.4 0-.7.1-1l-.1-.1.1.1m0 2.5c0-.4 0-.8-.1-1.2.2.1.4 0 .6 0l.6-.1c.3.1.5.6.9.3.1-.1.3-.1.4-.3.2-.1.2-.3.4-.4.1-.4.6-.4.8-.7.2-.2.4-.3.5-.5v.1l.8.8c-1.3 1.2-3 1.9-4.9 2m7.3-7.3c-.1 1.9-.8 3.5-2 4.9v.1l-.9-.9c.2-.1.3-.3.5-.5.8-1 1.2-2.2 1.3-3.6V14h.1l1 .1z"/><path class="st1" d="M18.5 7.8v.1c.2.1.3.3.5.3.1-.1 0-.1 0-.2s-.1-.1-.2-.1-.2-.2-.3-.1m-3.2-.7c.2.3.6.1.8.1.2.1.4 0 .5-.1-.1-.2-.4-.2-.6-.2l-.5.1s-.1 0-.2.1"/></svg>